# xmcd CD database file
#
# Track frame offsets:
#	150
#	14089
#	25259
#	40070
#	54828
#	68312
#	79252
#	91633
#	103854
#	116914
#	129432
#	142623
#	155409
#	169088
#	182347
#	196700
#	209515
#	221083
#	232402
#	245460
#	256183
#	271373
#	285138
#	298432
#	310706
#
# Disc length: 4318 seconds
#
# Revision: 0
# Processed by: cddbd v1.5.1PL2 Copyright (c) Steve Scherf et al.
# Submitted via: CDex 1.51
#
DISCID=5c10dc19
DTITLE=Sarah Vaughan - Time after time
DYEAR=2005
DGENRE=Jazz
TTITLE0=Time after time
TTITLE1=I can't get started
TTITLE2=Black coffee
TTITLE3=Summertime
TTITLE4=I'm crazy to love you
TTITLE5=I cried for you
TTITLE6=The man I love
TTITLE7=I don't stand a ghost of a chance with you
TTITLE8=I cover the waterfront
TTITLE9=Sometimes I feel like a motherless child
TTITLE10=Love me or leave me
TTITLE11=I get a kick out of you
TTITLE12=Tenderly
TTITLE13=Don't worry 'bout me
TTITLE14=Penthouse serenade
TTITLE15=I'm through with love
TTITLE16=I love the guy
TTITLE17=Perdido
TTITLE18=Nature boy
TTITLE19=I'm gonna sit right down and write myself a letter
TTITLE20=That lucky old sun (just rolls around heaven all day)
TTITLE21=You're all I need (with Billy Eckstine)
TTITLE22=Ev'ry day (with Billy Eckstine)
TTITLE23=Dedicated to you (with Billy Eckstine)
TTITLE24=A hundred years from today
EXTD=YEAR: 2005
EXTT0=
EXTT1=
EXTT2=
EXTT3=
EXTT4=
EXTT5=
EXTT6=
EXTT7=
EXTT8=
EXTT9=
EXTT10=
EXTT11=
EXTT12=
EXTT13=
EXTT14=
EXTT15=
EXTT16=
EXTT17=
EXTT18=
EXTT19=
EXTT20=
EXTT21=
EXTT22=
EXTT23=
EXTT24=
PLAYORDER=
